<svg xmlns="http://www.w3.org/2000/svg" width="32" height="32" viewBox="0 0 32 32">
  <path id="Sottrazione_1" data-name="Sottrazione 1" d="M16,32A15.953,15.953,0,0,1,4.531,27.157h6.9V25.708c-1.358,0-1.651-.36-1.651-2.028V16.089a4.574,4.574,0,0,1,2.463-.782c1.262,0,1.825.724,1.825,2.346v6.026c0,1.668-.293,2.028-1.651,2.028v1.45H27.469A15.953,15.953,0,0,1,16,32Zm4.668-6.293h0c-1.3-.011-1.593-.39-1.593-2.028V16.438c0-2.884-1.614-4.606-4.317-4.606a6.624,6.624,0,0,0-5.1,2.636A6.44,6.44,0,0,0,8.7,11.831H8.268L3.17,12.99v1.419c1.291.056,1.593.29,1.593,2.463v6.807c0,1.615-.278,1.994-1.485,2.026A16,16,0,0,1,16,0,16,16,0,0,1,28.724,25.7c-1.119-.05-1.392-.447-1.392-2.022V12.033h-.724l-5.881.957v1.419c1.291.056,1.593.29,1.593,2.463v6.807c0,1.668-.293,2.028-1.651,2.028Zm4.01-20.28a2.909,2.909,0,0,0-2.907,2.84,2.88,2.88,0,0,0,2.867,2.839h.048a2.844,2.844,0,0,0,2.051-4.85,2.8,2.8,0,0,0-2-.828h-.06Z" fill="#ea514e"/>
</svg>
