<?xml version="1.0" encoding="utf-8" ?>
<svg xmlns="http://www.w3.org/2000/svg" xmlns:xlink="http://www.w3.org/1999/xlink" width="240" height="120"  viewBox="0 0 1024 512">
	<path fill="#BEBCBD" d="M539.317 148.052C546.657 148.013 558.771 163.524 560.994 169.735L560.465 170.751C558.296 171.156 555.037 170.76 552.776 170.751C553.783 165.142 543.836 150.81 539.317 148.052Z"/>
	<path fill="#BEBCBD" d="M865.552 179.748C874.914 179.897 884.107 196.455 886.487 203.946C887.79 208.046 890.616 250.154 888.685 253.868C883.225 254.181 877.519 253.765 872.016 253.868C874.004 250.319 872.073 242.703 872.053 238.632L872.024 210.486C872.012 199.513 873.325 188.594 865.552 179.748Z"/>
	<path fill="#BEBCBD" d="M180.729 159C210.642 176.355 208.261 197.106 208.254 227.313C208.249 248.334 207.777 269.443 208.229 290.454C202.153 290.526 196.072 290.468 189.995 290.454C190.367 283.401 190.029 276.162 190.02 269.092L190.034 198.912C190.062 185.759 190.359 176.128 183.649 164.449C182.635 162.683 181.152 161.041 180.729 159Z"/>
	<path fill="#3F6892" d="M630.949 199.249C636.125 198.442 642.86 199.662 644.779 205.325C646.103 208.325 644.774 231.538 644.77 236.242L644.78 281.057C644.798 289.805 649.001 306.797 636.61 308.617C616.35 317.924 624.067 245.391 624.064 236.45C624.06 222.852 619.246 206.673 630.949 199.249Z"/>
	<path fill="#3F6892" d="M829.226 191.75C846.018 189.588 843.024 204.67 842.993 215.951L842.895 256.29C842.824 297.595 842.46 278.165 877.907 282.57C889.091 286.607 885.709 298.915 875.61 300.882C865.388 300.43 829.906 305.137 823.939 299.617C819.591 285.286 822.19 254.036 822.175 238.152C822.16 223.341 816.34 198.705 829.226 191.75Z"/>
	<path fill="#3F6892" d="M774.095 193.25C802.454 190.351 821.329 226.887 802.237 231.104C783.62 235.216 790.497 217.859 781.248 212.242C763.507 201.466 753.429 275.314 774.532 286.796C785.065 292.527 792.284 270.77 789.268 263.942C776.751 264.939 758.91 260.432 774.095 247.49C780.373 246.06 806.896 241.778 809.798 250.15C822.008 267.147 797.639 324.24 761.886 301.706C729.425 281.247 735.69 201.596 774.095 193.25Z"/>
	<path fill="#3F6892" d="M717.051 196.25C721.827 195.513 728.985 196.917 730.818 202.176C731.985 204.836 730.83 225.301 730.818 229.258L730.837 271.2C730.898 282 735.505 304.07 720.75 306.119C702.103 308.709 691.915 250.114 677.4 240.087C678.691 242.342 685.221 302.423 674.074 306.626C669.94 310.923 660.258 305.491 659.782 300.137C658.685 287.797 658.038 205.537 661.285 201.741C677.046 183.314 692.51 227.781 697.929 238.036C701.127 244.088 709.773 255.501 710.045 262.003C716.21 246.669 699.46 205.884 717.051 196.25Z"/>
	<path fill="#3F6892" d="M576.637 202.176C623.341 198.8 620.283 252.733 588.434 262.003C592.452 264.625 631.58 308.291 604.61 310.04C590.023 310.985 589.944 292.579 581.204 285.787C580.661 282.083 570.033 265.603 566.988 263.942C568.594 268.482 567.087 274.753 567.054 279.529C566.967 292.522 572.22 311.7 555.272 311.808C539.792 311.907 545.208 282.535 545.202 272.85L544.927 213.709C544.949 197.328 563.427 201.805 576.637 202.176ZM566.988 218.491C567.298 221.081 567.573 248.908 566.988 250.15C571.49 250.038 582.562 249.823 584.677 244.75C596.523 237.409 592.976 215.255 566.988 218.491Z"/>
	<path fill="#CB363E" d="M141.245 170.751C162.888 167.701 161.036 186.854 161.031 201.149L161.021 231.836C161.012 261.243 161.783 290.868 161.006 320.252C168.26 320.972 175.517 320.141 182.77 319.779L214.307 318.218C219.81 317.926 225.823 317.127 231.292 317.775C251.351 320.15 249.982 346.66 229.911 349.55C208.786 349.659 187.574 351.346 166.484 352.589C121.359 355.249 125.541 355.815 125.52 314.711L125.506 212.476C125.512 197.507 120.247 172.929 141.245 170.751Z"/>
	<path fill="#CB363E" d="M319.178 156.743C341.572 155.85 378.137 172.96 377.4 197.963C377.109 207.847 368.148 215.945 358.284 215.26C346.636 214.451 345.433 201.856 339.054 194.76C322.256 176.075 287.044 197.969 306.164 216.246C322.412 231.777 350.106 233.213 367.341 250.939C387.029 271.188 388.602 305.73 367.786 325.793C353.83 339.243 336.159 342.308 317.443 342.017C268.156 340.322 245.318 279.068 280.011 277.789C295.601 277.215 296.599 294.889 305.773 303.234C319.085 315.343 348.763 312.759 346.944 290.741C344.193 257.432 270.61 262.502 266.505 212.305C263.95 181.054 289.807 159.07 319.178 156.743Z"/>
	<path fill="#CB363E" d="M470.314 148.052C488.015 147.49 510.089 154.094 520.024 169.588C525.286 177.794 524.346 190.068 515.417 195.401C498.121 205.731 486.037 163.97 455.829 182.389C409.221 210.807 430.722 334.559 495.126 293.871L495.126 253.868C485.39 253.164 467.208 257.027 460.333 251.876C453.193 246.526 453.597 234.206 458.825 227.747C464.27 221.019 475.081 222.306 482.875 221.578C499.431 222.281 529.547 213.936 529.987 233.983C530.27 246.88 532.945 300.348 525.887 307.588C498.913 335.26 449.516 342.946 420.444 314.262C373.269 267.717 393.328 148.546 470.314 148.052Z"/>
	<path fill="#BEBCBD" d="M906.722 270.749C926.327 270.396 932.43 309.935 927.251 325.26C918.304 351.737 893.613 348.591 871.579 349.642C855.264 350.421 837.965 353.985 822.181 348.495C812.263 355.81 786.997 357.061 775.281 354.211C769.325 352.761 763.927 349.739 757.863 348.495C756.627 350.637 751.064 352.682 748.691 353.58C731.309 360.158 723.218 355.525 707.673 348.495C697.383 361.296 676.981 357.83 663.48 355.47C652.994 360.509 642.033 360.195 630.949 357.762C613.819 362.724 607.866 361.448 593.574 353.123C587.588 363.82 562.913 362.913 552.776 360.989C551.712 363.259 546.864 365.295 544.744 366.611C505.465 390.992 452.067 389.804 417.259 357.762C407.977 372.862 386.989 384.005 370.569 389.068C336.78 399.485 311.444 393.427 281.84 377.802C262.436 403.749 242.62 398.247 213.504 399.879L174.954 402.003C159.122 402.836 147.256 404.56 133.278 395.828C124.846 389.787 120.087 382.627 114.551 373.969C133.425 387.097 157.783 381.3 179.265 380.102C216.349 378.032 243.248 385.507 268.403 355.47C273.85 357.539 278.553 361.162 283.832 363.593C324.465 382.306 371.128 367.414 399.15 333.651C430.684 363.433 476.405 369.474 515.623 350.849C519.693 348.917 535.559 340.486 536.949 336.562C551.426 341.648 567.735 342.143 581.204 333.651C603.339 342.451 598.209 338.219 620.377 336.729C631.751 335.965 640.092 341.128 651.771 333.651C663.558 335.556 689.54 340.24 695.832 326.949C708.434 333.863 733.854 340.198 744.465 326.949C760.673 330.59 791.396 342.644 807.192 326.949C818.926 331.935 828.046 331.34 840.651 330.74L866.39 329.611C895.547 328.331 913.01 316.285 911.427 285.221C911.184 280.448 910.429 274.101 906.722 270.749Z"/>
</svg>
