<svg xmlns="http://www.w3.org/2000/svg" width="152.198" height="29.833" viewBox="0 0 152.198 29.833">
<path id="Tracciato_8" data-name="Tracciato 8" d="M27.922.791c0-4.317-2.59-6.239-5.847-6.239-3.1,0-5.219,1.609-6.907,3.571a8.675,8.675,0,0,0-1.295-3.571h-.589L6.378-3.879v1.923c1.805.078,2.158.471,2.158,3.336V10.6c0,2.237-.392,2.747-2.237,2.747V15.31H17.562V13.348c-1.844,0-2.237-.51-2.237-2.747V.32A6.209,6.209,0,0,1,18.661-.74c1.53,0,2.472.785,2.472,3.179V10.6c0,2.237-.392,2.747-2.237,2.747V15.31H30.159V13.348c-1.844,0-2.237-.51-2.237-2.747ZM41.343,15.31V13.348c-1.844,0-2.237-.51-2.237-2.747V-5.174h-.981L30.159-3.879v1.923c1.805.078,2.158.471,2.158,3.336V10.6c0,2.237-.392,2.747-2.237,2.747V15.31ZM39.42-10.275a3.827,3.827,0,0,0-3.846-3.846,3.938,3.938,0,0,0-4,3.846A3.886,3.886,0,0,0,35.456-6.43,3.9,3.9,0,0,0,39.42-10.275ZM58.935-3.948C57.4-4.968,55.4-5.556,52.264-5.556c-5.612,0-10.517,3.806-10.517,10.948,0,6.985,4.434,10.321,9.889,10.321a9.851,9.851,0,0,0,7.731-3.179l-1.06-1.687a8.7,8.7,0,0,1-4.4,1.1c-2.629,0-5.219-1.766-5.219-7.456,0-6.082,2.276-7.338,3.61-7.338,1.373,0,1.53,1.02,1.57,3.492h5.062Zm21.27,8.515c0-7.26-4.4-10.124-10.085-10.124-6.671,0-10.634,4.4-10.634,10.713,0,6.71,3.649,10.556,10.2,10.556C75.222,15.712,80.205,12.573,80.205,4.568Zm-7.456-.275c0,6.475-.942,8.79-2.825,8.79-2.433,0-2.982-2.315-2.982-7.652,0-6.75,1.06-8.241,2.9-8.241C71.768-2.81,72.749-1.24,72.749,4.293Zm20.1,10.281L98.659-1.593c.667-1.805,1.138-2.08,2.708-2.276v-2H92.772v2c1.491,0,2.237.432,2.237,1.413a2.73,2.73,0,0,1-.157.9l-2.237,7.26a23.694,23.694,0,0,0-.746,2.9h-.235a15,15,0,0,0-.706-2.9l-2.472-7.3a2.678,2.678,0,0,1-.2-.9c0-.824.589-1.373,2.119-1.373v-2H78.92v2c1.334.2,1.648.471,2.354,2.276l6.279,16.167ZM112.6,11.4c-3.61,0-4.905-1.766-5.062-5.69h11.655V3.783c0-6.043-2.354-9.81-9.026-9.81-6.043,0-9.967,3.885-9.967,10.6,0,6.789,3.61,10.674,9.928,10.674,3.767,0,6.475-1.02,8.712-3.336l-1.02-1.727A12.013,12.013,0,0,1,112.6,11.4ZM110.247-3.32c1.687,0,2.276,1.334,2.276,6.043h-4.944C107.854-1.946,108.56-3.32,110.247-3.32Zm28.011-1.2c-1.53-1.02-3.532-1.609-6.671-1.609-5.612,0-10.517,3.806-10.517,10.948,0,6.985,4.434,10.321,9.889,10.321a9.851,9.851,0,0,0,7.731-3.179l-1.06-1.687a8.7,8.7,0,0,1-4.4,1.1c-2.629,0-5.219-1.766-5.219-7.456,0-6.082,2.276-7.338,3.61-7.338,1.373,0,1.53,1.02,1.57,3.492h5.062ZM151.9,11.3c-3.61,0-4.905-1.766-5.062-5.69H158.5V3.683c0-6.043-2.354-9.81-9.026-9.81-6.043,0-9.967,3.885-9.967,10.6,0,6.789,3.61,10.674,9.928,10.674,3.767,0,6.475-1.02,8.712-3.336l-1.02-1.727A12.013,12.013,0,0,1,151.9,11.3ZM149.55-3.419c1.687,0,2.276,1.334,2.276,6.043h-4.944C147.157-2.046,147.863-3.419,149.55-3.419Z" transform="translate(-6.3 14.121)" fill="#ea514e"/>
</svg>